<mxfile host="app.diagrams.net" modified="2022-07-24T07:32:29.235Z" agent="5.0 (Windows NT 10.0; Win64; x64) AppleWebKit/537.36 (KHTML, like Gecko) Chrome/103.0.5060.134 Safari/537.36 Edg/103.0.1264.71" etag="x8ajDkOK1fOtDKdqZKuM" version="20.2.0" type="github">
  <diagram id="AmEnTjEuFJOwnKgjbxLm" name="PlayerManager">
    <mxGraphModel dx="2204" dy="766" grid="1" gridSize="10" guides="1" tooltips="1" connect="1" arrows="1" fold="1" page="1" pageScale="1" pageWidth="850" pageHeight="1100" math="0" shadow="0">
      <root>
        <mxCell id="0" />
        <mxCell id="1" parent="0" />
        <mxCell id="JcnzHYC7QVYUQ1IUo25t-47" value="PlayerData(ScriptableObject)" style="swimlane;fontStyle=1;childLayout=stackLayout;horizontal=1;startSize=26;fillColor=none;horizontalStack=0;resizeParent=1;resizeParentMax=0;resizeLast=0;collapsible=1;marginBottom=0;" parent="1" vertex="1">
          <mxGeometry x="810" y="115" width="230" height="170" as="geometry" />
        </mxCell>
        <mxCell id="JcnzHYC7QVYUQ1IUo25t-48" value="+m_Health: float&#xa;+m_MoveSpeed: float&#xa;" style="text;strokeColor=none;fillColor=none;align=left;verticalAlign=top;spacingLeft=4;spacingRight=4;overflow=hidden;rotatable=0;points=[[0,0.5],[1,0.5]];portConstraint=eastwest;" parent="JcnzHYC7QVYUQ1IUo25t-47" vertex="1">
          <mxGeometry y="26" width="230" height="144" as="geometry" />
        </mxCell>
        <mxCell id="JcnzHYC7QVYUQ1IUo25t-1" value="PlayerManager(Mono)" style="swimlane;fontStyle=1;align=center;verticalAlign=top;childLayout=stackLayout;horizontal=1;startSize=26;horizontalStack=0;resizeParent=1;resizeParentMax=0;resizeLast=0;collapsible=1;marginBottom=0;" parent="1" vertex="1">
          <mxGeometry x="380" y="20" width="270" height="300" as="geometry" />
        </mxCell>
        <mxCell id="JcnzHYC7QVYUQ1IUo25t-2" value="+m_CharacterController: CharacterController&#xa;+m_Animator: Animator&#xa;+m_PlayerData: PlayerData" style="text;strokeColor=none;fillColor=none;align=left;verticalAlign=top;spacingLeft=4;spacingRight=4;overflow=hidden;rotatable=0;points=[[0,0.5],[1,0.5]];portConstraint=eastwest;" parent="JcnzHYC7QVYUQ1IUo25t-1" vertex="1">
          <mxGeometry y="26" width="270" height="74" as="geometry" />
        </mxCell>
        <mxCell id="JcnzHYC7QVYUQ1IUo25t-3" value="" style="line;strokeWidth=1;fillColor=none;align=left;verticalAlign=middle;spacingTop=-1;spacingLeft=3;spacingRight=3;rotatable=0;labelPosition=right;points=[];portConstraint=eastwest;" parent="JcnzHYC7QVYUQ1IUo25t-1" vertex="1">
          <mxGeometry y="100" width="270" height="8" as="geometry" />
        </mxCell>
        <mxCell id="JcnzHYC7QVYUQ1IUo25t-4" value="# virtual OnAwake():void&#xa;# virtual OnStart():void&#xa;# virtual OnEnable():void&#xa;# virtual OnDisable():void&#xa;# virtual OnUpdate():void&#xa;# virtual OnOnTriggerEnter():void&#xa;#virtual OnOnTriggerExit(): void&#xa;- InitiliazeFields():void" style="text;strokeColor=none;fillColor=none;align=left;verticalAlign=top;spacingLeft=4;spacingRight=4;overflow=hidden;rotatable=0;points=[[0,0.5],[1,0.5]];portConstraint=eastwest;" parent="JcnzHYC7QVYUQ1IUo25t-1" vertex="1">
          <mxGeometry y="108" width="270" height="192" as="geometry" />
        </mxCell>
        <mxCell id="JcnzHYC7QVYUQ1IUo25t-13" value="WalkState" style="swimlane;fontStyle=1;align=center;verticalAlign=top;childLayout=stackLayout;horizontal=1;startSize=26;horizontalStack=0;resizeParent=1;resizeParentMax=0;resizeLast=0;collapsible=1;marginBottom=0;" parent="1" vertex="1">
          <mxGeometry x="-50" y="930" width="300" height="214" as="geometry" />
        </mxCell>
        <mxCell id="JcnzHYC7QVYUQ1IUo25t-14" value="-m_SubStates: List&lt;IMovementStateBase&gt;&#xa;-m_CurrentSubState: IMovementStateBase&#xa;-m_movementManager: PlayerMovementManager&#xa;-m_MoveInput: Vector2&#xa;-m_Controller: CharacterController&#xa;-m_Animator: Animator" style="text;strokeColor=none;fillColor=none;align=left;verticalAlign=top;spacingLeft=4;spacingRight=4;overflow=hidden;rotatable=0;points=[[0,0.5],[1,0.5]];portConstraint=eastwest;" parent="JcnzHYC7QVYUQ1IUo25t-13" vertex="1">
          <mxGeometry y="26" width="300" height="154" as="geometry" />
        </mxCell>
        <mxCell id="JcnzHYC7QVYUQ1IUo25t-15" value="" style="line;strokeWidth=1;fillColor=none;align=left;verticalAlign=middle;spacingTop=-1;spacingLeft=3;spacingRight=3;rotatable=0;labelPosition=right;points=[];portConstraint=eastwest;" parent="JcnzHYC7QVYUQ1IUo25t-13" vertex="1">
          <mxGeometry y="180" width="300" height="8" as="geometry" />
        </mxCell>
        <mxCell id="JcnzHYC7QVYUQ1IUo25t-16" value="+Move():void" style="text;strokeColor=none;fillColor=none;align=left;verticalAlign=top;spacingLeft=4;spacingRight=4;overflow=hidden;rotatable=0;points=[[0,0.5],[1,0.5]];portConstraint=eastwest;" parent="JcnzHYC7QVYUQ1IUo25t-13" vertex="1">
          <mxGeometry y="188" width="300" height="26" as="geometry" />
        </mxCell>
        <mxCell id="JcnzHYC7QVYUQ1IUo25t-17" value="AttackState" style="swimlane;fontStyle=1;align=center;verticalAlign=top;childLayout=stackLayout;horizontal=1;startSize=26;horizontalStack=0;resizeParent=1;resizeParentMax=0;resizeLast=0;collapsible=1;marginBottom=0;" parent="1" vertex="1">
          <mxGeometry x="-550" y="1260" width="240" height="90" as="geometry" />
        </mxCell>
        <mxCell id="JcnzHYC7QVYUQ1IUo25t-18" value="+Constructor(PlayerMovementManager)" style="text;strokeColor=none;fillColor=none;align=left;verticalAlign=top;spacingLeft=4;spacingRight=4;overflow=hidden;rotatable=0;points=[[0,0.5],[1,0.5]];portConstraint=eastwest;" parent="JcnzHYC7QVYUQ1IUo25t-17" vertex="1">
          <mxGeometry y="26" width="240" height="30" as="geometry" />
        </mxCell>
        <mxCell id="JcnzHYC7QVYUQ1IUo25t-19" value="" style="line;strokeWidth=1;fillColor=none;align=left;verticalAlign=middle;spacingTop=-1;spacingLeft=3;spacingRight=3;rotatable=0;labelPosition=right;points=[];portConstraint=eastwest;" parent="JcnzHYC7QVYUQ1IUo25t-17" vertex="1">
          <mxGeometry y="56" width="240" height="8" as="geometry" />
        </mxCell>
        <mxCell id="JcnzHYC7QVYUQ1IUo25t-20" value="+ method(type): type" style="text;strokeColor=none;fillColor=none;align=left;verticalAlign=top;spacingLeft=4;spacingRight=4;overflow=hidden;rotatable=0;points=[[0,0.5],[1,0.5]];portConstraint=eastwest;" parent="JcnzHYC7QVYUQ1IUo25t-17" vertex="1">
          <mxGeometry y="64" width="240" height="26" as="geometry" />
        </mxCell>
        <mxCell id="JcnzHYC7QVYUQ1IUo25t-21" value="BlockState" style="swimlane;fontStyle=1;align=center;verticalAlign=top;childLayout=stackLayout;horizontal=1;startSize=26;horizontalStack=0;resizeParent=1;resizeParentMax=0;resizeLast=0;collapsible=1;marginBottom=0;" parent="1" vertex="1">
          <mxGeometry x="-230" y="1260" width="240" height="90" as="geometry" />
        </mxCell>
        <mxCell id="JcnzHYC7QVYUQ1IUo25t-22" value="+Constructor(PlayerMovementManager)" style="text;strokeColor=none;fillColor=none;align=left;verticalAlign=top;spacingLeft=4;spacingRight=4;overflow=hidden;rotatable=0;points=[[0,0.5],[1,0.5]];portConstraint=eastwest;" parent="JcnzHYC7QVYUQ1IUo25t-21" vertex="1">
          <mxGeometry y="26" width="240" height="30" as="geometry" />
        </mxCell>
        <mxCell id="JcnzHYC7QVYUQ1IUo25t-23" value="" style="line;strokeWidth=1;fillColor=none;align=left;verticalAlign=middle;spacingTop=-1;spacingLeft=3;spacingRight=3;rotatable=0;labelPosition=right;points=[];portConstraint=eastwest;" parent="JcnzHYC7QVYUQ1IUo25t-21" vertex="1">
          <mxGeometry y="56" width="240" height="8" as="geometry" />
        </mxCell>
        <mxCell id="JcnzHYC7QVYUQ1IUo25t-24" value="+ method(type): type" style="text;strokeColor=none;fillColor=none;align=left;verticalAlign=top;spacingLeft=4;spacingRight=4;overflow=hidden;rotatable=0;points=[[0,0.5],[1,0.5]];portConstraint=eastwest;" parent="JcnzHYC7QVYUQ1IUo25t-21" vertex="1">
          <mxGeometry y="64" width="240" height="26" as="geometry" />
        </mxCell>
        <mxCell id="JcnzHYC7QVYUQ1IUo25t-37" value="PlayerMovementManager" style="swimlane;fontStyle=1;align=center;verticalAlign=top;childLayout=stackLayout;horizontal=1;startSize=26;horizontalStack=0;resizeParent=1;resizeParentMax=0;resizeLast=0;collapsible=1;marginBottom=0;" parent="1" vertex="1">
          <mxGeometry x="-210" y="40" width="300" height="428" as="geometry" />
        </mxCell>
        <mxCell id="JcnzHYC7QVYUQ1IUo25t-38" value="&#xa;+m_MoveInput: Vector2&#xa;+m_CurrentMoveDirection: Vector2&#xa;-m_CurrentState: MovementStateBase&#xa;-m_IdleState: IdleState&#xa;-m_WalkState: WalkState&#xa;-m_AttackState: AttackState&#xa;-m_BlockState: BlockState" style="text;strokeColor=none;fillColor=none;align=left;verticalAlign=top;spacingLeft=4;spacingRight=4;overflow=hidden;rotatable=0;points=[[0,0.5],[1,0.5]];portConstraint=eastwest;" parent="JcnzHYC7QVYUQ1IUo25t-37" vertex="1">
          <mxGeometry y="26" width="300" height="184" as="geometry" />
        </mxCell>
        <mxCell id="JcnzHYC7QVYUQ1IUo25t-39" value="" style="line;strokeWidth=1;fillColor=none;align=left;verticalAlign=middle;spacingTop=-1;spacingLeft=3;spacingRight=3;rotatable=0;labelPosition=right;points=[];portConstraint=eastwest;" parent="JcnzHYC7QVYUQ1IUo25t-37" vertex="1">
          <mxGeometry y="210" width="300" height="8" as="geometry" />
        </mxCell>
        <mxCell id="JcnzHYC7QVYUQ1IUo25t-40" value="# override OnAwake():void&#xa;# override OnStart():void&#xa;# override OnEnable():void&#xa;# override OnDisable():void&#xa;# override OnUpdate():void&#xa;+SwitchState(MovementStateBase new State):void&#xa;-PlayerInput():void&#xa;&#xa;&#xa;&#xa;&#xa;&#xa;&#xa;-" style="text;strokeColor=none;fillColor=none;align=left;verticalAlign=top;spacingLeft=4;spacingRight=4;overflow=hidden;rotatable=0;points=[[0,0.5],[1,0.5]];portConstraint=eastwest;" parent="JcnzHYC7QVYUQ1IUo25t-37" vertex="1">
          <mxGeometry y="218" width="300" height="210" as="geometry" />
        </mxCell>
        <mxCell id="JcnzHYC7QVYUQ1IUo25t-41" value="&lt;p style=&quot;margin:0px;margin-top:4px;text-align:center;&quot;&gt;&lt;i&gt;&amp;lt;&amp;lt;Interface&amp;gt;&amp;gt;&lt;/i&gt;&lt;br&gt;&lt;b&gt;IMovementStateBase&lt;/b&gt;&lt;/p&gt;&lt;p style=&quot;margin:0px;margin-left:4px;&quot;&gt;&lt;br&gt;&lt;/p&gt;&lt;hr size=&quot;1&quot;&gt;&lt;p style=&quot;margin:0px;margin-left:4px;&quot;&gt;+ OnEnterState():void&lt;/p&gt;&lt;p style=&quot;margin:0px;margin-left:4px;&quot;&gt;+ OnUpdateState():void&lt;/p&gt;&lt;p style=&quot;margin:0px;margin-left:4px;&quot;&gt;+OnExitState():void&lt;/p&gt;" style="verticalAlign=top;align=left;overflow=fill;fontSize=12;fontFamily=Helvetica;html=1;" parent="1" vertex="1">
          <mxGeometry x="-330" y="610" width="320" height="260" as="geometry" />
        </mxCell>
        <mxCell id="JcnzHYC7QVYUQ1IUo25t-43" value=" (abstract) ObjectMover" style="swimlane;fontStyle=1;align=center;verticalAlign=top;childLayout=stackLayout;horizontal=1;startSize=26;horizontalStack=0;resizeParent=1;resizeParentMax=0;resizeLast=0;collapsible=1;marginBottom=0;" parent="1" vertex="1">
          <mxGeometry x="320" y="890" width="570" height="200" as="geometry" />
        </mxCell>
        <mxCell id="JcnzHYC7QVYUQ1IUo25t-44" value="&#xa;&#xa;&#xa;" style="text;strokeColor=none;fillColor=none;align=left;verticalAlign=top;spacingLeft=4;spacingRight=4;overflow=hidden;rotatable=0;points=[[0,0.5],[1,0.5]];portConstraint=eastwest;" parent="JcnzHYC7QVYUQ1IUo25t-43" vertex="1">
          <mxGeometry y="26" width="570" height="60" as="geometry" />
        </mxCell>
        <mxCell id="JcnzHYC7QVYUQ1IUo25t-45" value="" style="line;strokeWidth=1;fillColor=none;align=left;verticalAlign=middle;spacingTop=-1;spacingLeft=3;spacingRight=3;rotatable=0;labelPosition=right;points=[];portConstraint=eastwest;" parent="JcnzHYC7QVYUQ1IUo25t-43" vertex="1">
          <mxGeometry y="86" width="570" height="8" as="geometry" />
        </mxCell>
        <mxCell id="JcnzHYC7QVYUQ1IUo25t-46" value="+ virtual Move(GameObject gameObject,CharacterController controller, Vector2 movePosition): void&#xa;+ virtual Move(GameObject gameObject, Vectpr2 movePosition): void" style="text;strokeColor=none;fillColor=none;align=left;verticalAlign=top;spacingLeft=4;spacingRight=4;overflow=hidden;rotatable=0;points=[[0,0.5],[1,0.5]];portConstraint=eastwest;" parent="JcnzHYC7QVYUQ1IUo25t-43" vertex="1">
          <mxGeometry y="94" width="570" height="106" as="geometry" />
        </mxCell>
        <mxCell id="JcnzHYC7QVYUQ1IUo25t-52" value="IdleState" style="swimlane;fontStyle=1;align=center;verticalAlign=top;childLayout=stackLayout;horizontal=1;startSize=26;horizontalStack=0;resizeParent=1;resizeParentMax=0;resizeLast=0;collapsible=1;marginBottom=0;" parent="1" vertex="1">
          <mxGeometry x="-580" y="930" width="340" height="184" as="geometry" />
        </mxCell>
        <mxCell id="JcnzHYC7QVYUQ1IUo25t-53" value="-m_SubStates: List&lt;IMovementStateBase&gt;&#xa;-m_CurrentSubState: IMovementStateBase&#xa;-m_movementManager: PlayerMovementManager&#xa;-m_MoveInput: Vector2&#xa;-m_Animator: Animator" style="text;strokeColor=none;fillColor=none;align=left;verticalAlign=top;spacingLeft=4;spacingRight=4;overflow=hidden;rotatable=0;points=[[0,0.5],[1,0.5]];portConstraint=eastwest;" parent="JcnzHYC7QVYUQ1IUo25t-52" vertex="1">
          <mxGeometry y="26" width="340" height="124" as="geometry" />
        </mxCell>
        <mxCell id="JcnzHYC7QVYUQ1IUo25t-54" value="" style="line;strokeWidth=1;fillColor=none;align=left;verticalAlign=middle;spacingTop=-1;spacingLeft=3;spacingRight=3;rotatable=0;labelPosition=right;points=[];portConstraint=eastwest;" parent="JcnzHYC7QVYUQ1IUo25t-52" vertex="1">
          <mxGeometry y="150" width="340" height="8" as="geometry" />
        </mxCell>
        <mxCell id="JcnzHYC7QVYUQ1IUo25t-55" value="+Constructor(PlayerMovementManager)" style="text;strokeColor=none;fillColor=none;align=left;verticalAlign=top;spacingLeft=4;spacingRight=4;overflow=hidden;rotatable=0;points=[[0,0.5],[1,0.5]];portConstraint=eastwest;" parent="JcnzHYC7QVYUQ1IUo25t-52" vertex="1">
          <mxGeometry y="158" width="340" height="26" as="geometry" />
        </mxCell>
      </root>
    </mxGraphModel>
  </diagram>
</mxfile>
